<mxfile host="app.diagrams.net" modified="2024-03-21T14:44:58.193Z" agent="Mozilla/5.0 (Windows NT 10.0; Win64; x64) AppleWebKit/537.36 (KHTML, like Gecko) Chrome/122.0.0.0 Safari/537.36 Edg/122.0.0.0" etag="9xdNaOV33ELa83QP77rO" version="24.0.7" type="device">
  <diagram name="Page-1" id="qU0Zbh3Ch_zT5ugzeIRw">
    <mxGraphModel dx="1002" dy="535" grid="0" gridSize="10" guides="1" tooltips="1" connect="1" arrows="1" fold="1" page="1" pageScale="1" pageWidth="850" pageHeight="1100" math="0" shadow="0">
      <root>
        <mxCell id="0" />
        <mxCell id="1" parent="0" />
        <mxCell id="c_73oIfOlarCDaTiqhHG-5" value="" style="ellipse;whiteSpace=wrap;html=1;aspect=fixed;fillColor=#f5f5f5;fontColor=#333333;strokeColor=#666666;" vertex="1" parent="1">
          <mxGeometry x="240" y="100" width="400" height="400" as="geometry" />
        </mxCell>
        <mxCell id="c_73oIfOlarCDaTiqhHG-3" value="" style="ellipse;whiteSpace=wrap;html=1;aspect=fixed;fillColor=#f8cecc;strokeColor=#b85450;" vertex="1" parent="1">
          <mxGeometry x="340" y="200" width="200" height="200" as="geometry" />
        </mxCell>
        <mxCell id="c_73oIfOlarCDaTiqhHG-1" value="Interfaces&lt;div&gt;Entities&lt;/div&gt;" style="ellipse;whiteSpace=wrap;html=1;aspect=fixed;dashed=1;fillColor=#f8cecc;strokeColor=#b85450;" vertex="1" parent="1">
          <mxGeometry x="400" y="260" width="80" height="80" as="geometry" />
        </mxCell>
        <mxCell id="c_73oIfOlarCDaTiqhHG-7" value="&lt;b&gt;Application Core&lt;/b&gt;" style="text;html=1;align=center;verticalAlign=middle;resizable=0;points=[];autosize=1;strokeColor=none;fillColor=none;" vertex="1" parent="1">
          <mxGeometry x="380" y="350" width="120" height="30" as="geometry" />
        </mxCell>
        <mxCell id="c_73oIfOlarCDaTiqhHG-8" value="Domain Services" style="text;html=1;align=center;verticalAlign=middle;resizable=0;points=[];autosize=1;strokeColor=none;fillColor=none;" vertex="1" parent="1">
          <mxGeometry x="385" y="220" width="110" height="30" as="geometry" />
        </mxCell>
        <mxCell id="c_73oIfOlarCDaTiqhHG-9" value="&lt;b&gt;User Interface&lt;/b&gt;&lt;div&gt;Controllers&lt;span style=&quot;white-space: pre;&quot;&gt;&#x9;&lt;/span&gt;View Models&lt;/div&gt;" style="rounded=1;whiteSpace=wrap;html=1;fillColor=#dae8fc;strokeColor=#6c8ebf;" vertex="1" parent="1">
          <mxGeometry x="360" y="130" width="160" height="40" as="geometry" />
        </mxCell>
        <mxCell id="c_73oIfOlarCDaTiqhHG-11" value="&lt;b&gt;Infrastructure&lt;/b&gt;&lt;div&gt;Repositories&lt;span style=&quot;white-space: pre;&quot;&gt;&#x9;&lt;/span&gt;&lt;span style=&quot;white-space: pre;&quot;&gt;&#x9;&lt;/span&gt;Implementation of Services&lt;/div&gt;" style="rounded=1;whiteSpace=wrap;html=1;fillColor=#fff2cc;strokeColor=#d6b656;" vertex="1" parent="1">
          <mxGeometry x="310" y="410" width="260" height="40" as="geometry" />
        </mxCell>
      </root>
    </mxGraphModel>
  </diagram>
</mxfile>
